<?xml version="1.0" standalone="no"?>
<!DOCTYPE svg PUBLIC "-//W3C//DTD SVG 20010904//EN"
 "http://www.w3.org/TR/2001/REC-SVG-20010904/DTD/svg10.dtd">
<svg version="1.0" xmlns="http://www.w3.org/2000/svg"
 width="3054.000000pt" height="1137.000000pt" viewBox="0 0 3054.000000 1137.000000"
 preserveAspectRatio="xMidYMid meet">

<g transform="translate(0.000000,1137.000000) scale(0.100000,-0.100000)"
fill="#000000" stroke="none">
<path d="M8190 9919 c-518 -55 -1040 -364 -1322 -784 -179 -266 -264 -534
-275 -866 -6 -187 3 -303 38 -464 183 -854 782 -1446 1567 -1550 91 -12 375
-20 302 -8 -592 93 -1070 446 -1346 993 -251 497 -308 1037 -158 1499 41 124
156 347 234 451 81 108 193 225 295 309 225 186 557 347 815 396 160 30 163
33 40 33 -63 -1 -149 -4 -190 -9z"/>
<path d="M3033 9900 c-62 -25 -71 -132 -17 -207 16 -22 53 -73 82 -114 29 -40
59 -96 67 -124 13 -44 15 -227 13 -1366 l-3 -1314 -28 -54 c-15 -30 -51 -83
-79 -118 -67 -85 -88 -128 -88 -183 0 -93 37 -110 243 -110 l138 0 -28 24
c-24 21 -27 31 -27 78 1 64 9 80 86 180 32 43 71 103 86 135 l27 58 0 1325 0
1325 -26 56 c-15 31 -56 95 -93 142 -70 93 -81 117 -80 186 1 35 7 49 28 68
l27 23 -153 -1 c-84 0 -163 -4 -175 -9z"/>
<path d="M5598 9894 c-18 -9 -32 -28 -39 -54 -19 -62 0 -107 87 -208 41 -48
87 -112 102 -142 l27 -55 3 -765 3 -764 144 -201 c79 -110 151 -209 159 -220
14 -18 15 77 13 970 l-2 990 -27 55 c-15 30 -56 88 -92 128 -35 40 -71 88 -80
107 -30 62 -16 142 28 163 15 8 -22 11 -139 11 -122 0 -166 -3 -187 -15z"/>
<path d="M11759 9881 c-24 -24 -29 -38 -29 -76 0 -55 16 -88 87 -180 30 -38
67 -92 81 -120 l27 -50 0 -1340 0 -1340 -27 -55 c-15 -30 -53 -86 -84 -125
-67 -82 -84 -119 -84 -178 0 -87 48 -107 253 -107 l139 0 -31 26 c-65 54 -52
127 47 258 82 107 96 133 111 204 17 83 15 2568 -3 2644 -16 67 -33 98 -118
210 -50 65 -67 96 -72 130 -7 49 5 96 31 116 14 10 -13 12 -141 12 l-158 0
-29 -29z"/>
<path d="M14818 9881 c-29 -26 -33 -35 -32 -79 0 -56 21 -94 109 -207 98 -125
90 12 90 -1490 l0 -1320 -26 -55 c-14 -30 -46 -80 -71 -111 -103 -126 -124
-184 -91 -249 26 -50 61 -59 238 -59 138 0 148 1 123 15 -36 19 -48 43 -48 96
0 48 30 104 109 203 23 30 54 80 67 112 l24 58 0 1320 0 1320 -24 58 c-13 32
-44 82 -67 112 -82 103 -109 154 -109 208 0 38 5 53 25 72 l24 25 -154 0 -155
0 -32 -29z"/>
<path d="M16420 9901 c0 -5 7 -14 15 -21 26 -21 20 -120 -9 -163 l-25 -36 102
-84 c56 -46 127 -111 158 -144 86 -93 1001 -1361 992 -1376 -40 -65 -916
-1254 -951 -1291 -26 -26 -101 -89 -167 -138 -66 -50 -122 -92 -124 -94 -3 -2
5 -22 17 -43 30 -53 31 -140 1 -167 -19 -17 -19 -19 -2 -25 10 -4 82 -8 161
-8 l144 -1 -31 26 c-27 23 -31 32 -31 78 0 74 24 105 165 211 66 49 147 117
180 150 59 58 965 1293 965 1315 0 18 -933 1302 -995 1369 -33 35 -106 102
-162 148 -56 46 -111 99 -122 117 -30 47 -29 131 1 163 l21 23 -151 0 c-84 0
-152 -4 -152 -9z"/>
<path d="M18874 9900 c-51 -21 -70 -100 -38 -161 8 -17 39 -57 69 -89 85 -92
109 -134 109 -190 0 -47 -9 -62 -217 -375 -119 -179 -217 -327 -217 -330 0 -8
160 -225 166 -225 4 0 292 430 471 704 105 161 123 194 123 228 0 54 -22 96
-89 170 -91 100 -101 119 -101 182 0 44 4 59 22 76 l22 20 -150 -1 c-82 0
-159 -4 -170 -9z"/>
<path d="M20290 9903 c0 -5 7 -17 15 -27 30 -39 17 -114 -27 -163 l-20 -22 50
-61 c71 -88 100 -146 112 -226 7 -47 10 -472 8 -1339 -4 -1441 5 -1303 -91
-1431 l-53 -70 33 -48 c43 -62 47 -133 9 -171 -33 -33 -22 -35 146 -35 l140 0
-31 29 c-26 24 -31 36 -31 75 0 62 16 97 84 181 31 39 69 95 84 125 l27 55 0
1340 0 1340 -27 55 c-15 30 -53 87 -84 125 -31 39 -63 84 -70 102 -21 49 -18
116 7 147 l20 26 -150 0 c-83 0 -151 -3 -151 -7z"/>
<path d="M23411 9884 c-28 -23 -31 -31 -31 -82 0 -64 10 -85 90 -184 28 -34
63 -88 78 -118 l27 -55 0 -1330 0 -1330 -23 -50 c-13 -27 -55 -92 -94 -143
-67 -88 -72 -97 -76 -153 -8 -112 25 -129 248 -129 131 1 142 2 119 15 -57 31
-63 120 -14 197 14 24 50 74 79 111 93 120 86 -6 86 1482 0 1488 7 1362 -86
1482 -29 37 -65 87 -79 110 -44 70 -46 142 -5 183 20 20 19 20 -134 20 -152 0
-155 0 -185 -26z"/>
<path d="M21980 9561 c108 -6 132 -11 176 -33 86 -45 157 -112 282 -265 128
-158 208 -240 262 -268 83 -43 210 -26 240 31 13 23 11 28 -42 82 -30 31 -99
112 -153 180 -107 135 -191 212 -275 251 -55 26 -56 26 -335 27 -198 1 -244
-1 -155 -5z"/>
<path d="M13661 9547 c109 -31 186 -96 347 -295 186 -230 255 -284 362 -286
68 -1 116 18 135 54 13 26 12 29 -21 61 -20 19 -87 98 -150 176 -129 160 -204
232 -284 271 -53 26 -61 27 -245 29 -168 2 -185 1 -144 -10z"/>
<path d="M24955 9551 c-15 -6 -5 -12 49 -30 474 -153 839 -727 942 -1481 22
-160 25 -521 5 -630 -73 -406 -312 -666 -669 -730 -31 -6 21 -8 148 -6 224 4
265 12 407 82 330 162 491 547 453 1084 -62 882 -472 1571 -1013 1700 -84 20
-281 27 -322 11z"/>
<path d="M7910 9318 l-35 -10 70 -22 c341 -109 788 -462 1141 -901 221 -275
399 -585 464 -805 27 -94 38 -271 21 -353 -34 -161 -161 -308 -321 -373 -46
-19 -52 -24 -35 -31 11 -4 81 -8 155 -8 116 1 142 4 188 23 347 145 442 488
253 910 -274 608 -922 1279 -1451 1505 -160 68 -346 95 -450 65z"/>
<path d="M3960 8662 l0 -208 756 -1005 c416 -552 775 -1023 797 -1047 73 -75
109 -86 287 -90 l155 -2 -39 21 c-21 11 -57 40 -80 64 -22 24 -450 590 -951
1259 -500 668 -913 1215 -917 1216 -5 0 -8 -94 -8 -208z"/>
<path d="M22284 8720 c-30 -12 -66 -58 -130 -167 -67 -114 -122 -176 -184
-208 l-45 -24 141 -1 c172 0 226 13 291 73 77 71 103 117 103 182 0 77 -21
122 -64 140 -39 16 -80 18 -112 5z"/>
<path d="M13829 8572 c-35 -23 -63 -58 -141 -178 -73 -112 -120 -164 -176
-193 l-37 -20 150 0 c210 0 252 18 345 151 43 62 50 78 50 120 0 64 -22 116
-55 128 -41 15 -107 12 -136 -8z"/>
<path d="M21948 7951 c68 -23 127 -80 194 -186 110 -175 121 -185 200 -185 78
0 118 52 118 150 0 60 -32 115 -102 174 -64 55 -116 66 -302 66 l-161 -1 53
-18z"/>
<path d="M13470 7821 c78 -24 141 -82 232 -214 101 -148 145 -179 231 -163 55
10 81 46 84 119 4 61 3 63 -47 125 -64 79 -117 118 -181 131 -56 12 -358 14
-319 2z"/>
<path d="M18169 7612 l-76 -117 229 -315 c126 -173 238 -332 249 -352 23 -45
25 -108 3 -151 -9 -18 -43 -65 -75 -105 -89 -111 -101 -187 -36 -236 26 -19
44 -21 190 -24 l161 -4 -32 30 c-28 26 -32 37 -32 79 0 54 18 89 86 169 48 56
83 126 84 165 0 14 -10 45 -23 70 -19 38 -608 862 -641 896 -8 10 -29 -15 -87
-105z"/>
<path d="M22822 7264 c-68 -34 -128 -101 -251 -282 -136 -200 -227 -285 -336
-313 -17 -4 53 -7 155 -6 172 3 188 4 235 27 74 36 169 138 275 295 52 77 112
159 133 182 43 47 43 69 0 103 -39 31 -143 28 -211 -6z"/>
<path d="M23040 5599 c-312 -32 -639 -148 -845 -301 -253 -188 -411 -451 -456
-758 -15 -104 -6 -377 16 -475 66 -298 214 -516 460 -680 175 -116 358 -190
788 -320 172 -51 350 -107 397 -125 325 -119 501 -270 566 -485 28 -91 25
-281 -4 -356 -50 -126 -155 -227 -276 -265 -30 -10 -53 -21 -50 -26 10 -15
244 -9 313 8 131 33 250 114 304 208 88 151 83 393 -11 556 -38 68 -148 176
-227 225 -142 89 -257 132 -682 260 -171 52 -365 115 -430 140 -488 192 -730
447 -820 865 -14 68 -18 128 -17 295 0 195 2 217 27 310 31 118 116 293 186
386 215 283 581 474 1021 533 l105 14 -140 0 c-77 -1 -178 -5 -225 -9z"/>
<path d="M26690 5599 c-217 -22 -460 -89 -630 -174 -343 -171 -555 -421 -648
-763 -24 -90 -26 -113 -26 -302 -1 -162 3 -222 17 -288 83 -375 285 -620 658
-796 161 -76 266 -113 623 -220 329 -100 478 -153 586 -212 153 -84 263 -193
317 -314 54 -120 66 -295 28 -417 -37 -123 -154 -240 -279 -279 -30 -10 -53
-21 -50 -26 10 -15 244 -9 313 8 131 33 250 114 304 208 88 151 83 393 -11
556 -38 68 -148 176 -227 225 -142 89 -257 132 -682 260 -171 52 -365 115
-430 140 -488 192 -730 447 -820 865 -14 68 -18 128 -17 295 0 196 2 217 27
310 32 119 117 295 186 386 216 284 581 474 1021 533 l105 14 -140 0 c-77 -1
-178 -5 -225 -9z"/>
<path d="M2294 5546 c-43 -19 -64 -53 -64 -104 0 -53 23 -98 105 -209 94 -128
119 -184 119 -263 -1 -61 -33 -146 -555 -1496 -305 -787 -570 -1457 -589
-1489 -19 -32 -84 -109 -143 -172 -59 -62 -115 -129 -122 -148 -35 -81 -6
-165 62 -184 21 -6 110 -11 198 -10 115 1 151 3 128 10 -49 14 -73 52 -73 116
0 30 7 68 16 84 8 17 63 81 122 143 59 62 122 137 139 167 18 30 282 701 588
1492 604 1564 576 1481 536 1586 -10 28 -40 80 -67 118 -131 186 -134 191
-134 249 0 65 10 88 48 108 25 14 14 15 -128 15 -109 0 -164 -4 -186 -13z"/>
<path d="M5394 5541 c-49 -22 -70 -69 -60 -133 9 -54 23 -79 102 -178 37 -47
79 -110 93 -140 l26 -55 0 -1520 0 -1520 -26 -55 c-14 -30 -49 -84 -77 -120
-47 -60 -50 -67 -37 -85 44 -60 57 -99 53 -153 -4 -44 -10 -60 -31 -78 -37
-31 -23 -34 166 -33 117 1 153 3 130 10 -48 14 -73 52 -73 111 0 65 19 108 84
187 82 101 105 139 126 210 20 65 20 92 18 1551 l-3 1485 -31 65 c-17 36 -58
100 -92 142 -83 104 -102 142 -102 204 0 55 24 98 64 114 13 5 -38 9 -134 9
-131 0 -161 -2 -196 -18z"/>
<path d="M9795 5546 c-51 -23 -69 -51 -69 -109 0 -66 18 -101 102 -208 38 -48
79 -108 93 -135 l24 -49 0 -1530 0 -1530 -24 -49 c-14 -27 -55 -87 -93 -135
-37 -47 -75 -102 -85 -121 -24 -49 -23 -133 2 -161 38 -42 74 -49 247 -49
l163 0 -40 19 c-97 44 -86 158 29 300 76 94 102 138 120 202 15 49 16 211 14
1550 l-3 1494 -32 65 c-18 36 -60 99 -94 140 -71 86 -98 139 -99 192 0 54 15
85 52 108 l33 20 -155 0 c-106 -1 -164 -5 -185 -14z"/>
<path d="M14184 5546 c-46 -20 -64 -52 -64 -114 0 -65 14 -94 97 -197 74 -93
109 -159 123 -234 6 -35 10 -560 10 -1486 0 -926 -4 -1451 -10 -1486 -14 -75
-49 -141 -123 -234 -83 -103 -97 -132 -97 -197 0 -110 38 -128 262 -128 144 1
159 2 133 14 -54 24 -70 51 -69 117 1 66 13 88 121 228 33 44 71 105 82 136
l21 56 -2 1512 -3 1512 -27 55 c-15 30 -55 89 -89 130 -33 41 -69 91 -79 110
-43 84 -33 166 24 201 l31 19 -155 0 c-108 -1 -164 -5 -186 -14z"/>
<path d="M18224 5546 c-45 -20 -64 -52 -64 -109 0 -65 19 -105 90 -193 78 -97
106 -146 124 -219 14 -52 16 -231 16 -1510 0 -1279 -2 -1458 -16 -1510 -18
-70 -48 -124 -111 -202 -38 -46 -44 -59 -34 -72 45 -62 51 -78 51 -137 0 -52
-4 -65 -25 -86 l-25 -26 22 -6 c40 -10 348 -6 311 5 -49 14 -73 52 -73 116 0
68 14 98 90 193 71 88 116 174 130 249 14 78 14 2878 -1 2957 -15 82 -48 146
-122 239 -84 104 -97 132 -97 200 0 66 10 89 48 109 25 14 14 15 -128 15 -109
0 -164 -4 -186 -13z"/>
<path d="M23500 5233 c-77 -12 -77 -13 -17 -38 107 -43 195 -124 282 -261 19
-29 77 -138 130 -243 113 -224 172 -316 252 -393 107 -101 229 -144 388 -135
131 7 140 14 66 49 -81 39 -169 122 -235 222 -29 44 -100 173 -156 285 -146
288 -232 396 -373 468 -85 42 -232 63 -337 46z"/>
<path d="M27150 5233 c-77 -12 -77 -13 -17 -38 112 -45 207 -136 295 -282 19
-32 73 -134 119 -228 47 -93 109 -206 138 -250 132 -200 286 -284 500 -272
131 7 140 14 66 49 -78 38 -168 121 -230 213 -27 41 -97 168 -156 284 -150
298 -236 405 -378 478 -85 42 -232 63 -337 46z"/>
<path d="M7110 5151 c-21 -6 -10 -12 65 -35 436 -136 790 -578 981 -1224 81
-275 117 -534 118 -852 1 -255 -14 -367 -68 -527 -111 -325 -349 -548 -661
-617 l-70 -16 180 4 c142 3 195 8 250 23 500 142 744 594 696 1288 -30 426
-123 797 -280 1120 -235 480 -555 763 -940 830 -86 15 -227 18 -271 6z"/>
<path d="M11500 5151 c-23 -7 -22 -9 20 -20 140 -40 252 -94 366 -179 386
-286 667 -848 759 -1522 25 -184 31 -522 11 -656 -42 -283 -122 -467 -274
-626 -125 -131 -273 -214 -447 -251 l-70 -15 150 -1 c296 -1 500 74 676 249
191 190 291 456 306 815 20 488 -121 1102 -344 1490 -121 211 -282 402 -438
518 -96 72 -251 148 -360 177 -86 23 -310 36 -355 21z"/>
<path d="M15890 5149 c-24 -10 -23 -11 31 -33 196 -81 367 -272 457 -509 90
-240 106 -552 41 -789 -55 -198 -170 -332 -334 -390 l-50 -18 170 3 c192 4
234 14 325 76 115 79 193 212 233 401 30 139 29 385 -2 529 -80 374 -303 649
-587 721 -84 22 -240 26 -284 9z"/>
<path d="M20297 5146 c113 -36 215 -126 393 -346 142 -176 221 -253 295 -286
48 -22 67 -26 131 -22 65 3 77 7 101 31 l28 27 -71 72 c-39 40 -116 129 -171
198 -130 162 -231 258 -319 301 l-68 34 -181 2 c-163 2 -176 1 -138 -11z"/>
<path d="M3020 4278 c-41 -117 -77 -221 -78 -232 -2 -11 88 -275 200 -588
l203 -568 164 0 c151 0 163 1 156 18 -3 9 -128 357 -277 772 -149 415 -275
767 -282 783 -10 25 -16 12 -86 -185z"/>
<path d="M20465 4179 c-20 -18 -54 -64 -77 -103 -111 -195 -168 -263 -251
-302 l-52 -25 165 3 c141 3 172 7 211 24 60 28 112 75 158 143 65 95 84 139
76 178 -16 86 -50 113 -139 113 -48 0 -60 -4 -91 -31z"/>
<path d="M20117 3331 c94 -32 144 -84 256 -266 79 -129 102 -148 182 -153 63
-4 66 -3 99 30 23 23 36 47 41 76 6 39 3 49 -36 115 -59 100 -131 169 -202
195 -51 19 -78 22 -225 22 l-167 -1 52 -18z"/>
<path d="M15988 3003 c-27 -2 -48 -6 -48 -9 0 -3 112 -213 249 -467 137 -254
254 -480 260 -502 26 -94 2 -164 -95 -274 -64 -74 -74 -95 -74 -159 0 -103 41
-122 262 -122 144 1 159 2 133 14 -43 19 -66 49 -72 94 -7 53 20 111 90 190
88 101 110 168 84 255 -9 26 -129 259 -267 517 l-252 470 -112 -2 c-61 -1
-132 -3 -158 -5z"/>
<path d="M21953 2859 c-106 -20 -202 -90 -248 -179 -36 -71 -40 -105 -15 -132
39 -43 45 -89 27 -205 l-17 -106 24 -53 c172 -375 701 -673 1327 -748 168 -20
429 -32 429 -19 0 6 -37 13 -81 17 -179 15 -433 76 -614 148 -414 165 -707
441 -781 737 -23 91 -15 255 15 332 28 73 88 141 151 172 l50 25 -50 11 c-58
13 -155 13 -217 0z"/>
<path d="M25602 2859 c-116 -22 -206 -92 -254 -195 -38 -81 -49 -232 -24 -336
105 -447 661 -807 1380 -893 166 -19 426 -31 426 -18 0 6 -37 13 -81 17 -346
29 -758 177 -1009 363 -197 145 -340 339 -386 522 -23 91 -15 255 15 333 27
69 89 139 153 172 l48 24 -51 11 c-58 13 -154 13 -217 0z"/>
<path d="M21130 2563 c-66 -23 -169 -133 -278 -295 -168 -250 -256 -340 -372
-382 -44 -16 -42 -16 130 -13 168 2 177 3 234 30 88 41 190 151 323 347 61 91
135 190 163 220 l51 55 -31 28 c-27 24 -37 27 -103 26 -39 0 -92 -8 -117 -16z"/>
<path d="M3510 2446 c0 -8 29 -96 65 -197 99 -278 95 -300 -80 -479 -84 -85
-105 -113 -110 -144 -11 -54 5 -105 38 -130 26 -19 44 -21 205 -23 158 -3 174
-1 146 11 -17 8 -39 24 -48 37 -19 27 -22 110 -5 142 7 12 60 72 118 132 116
119 139 163 128 243 -4 36 -117 365 -138 403 -9 17 -24 19 -164 19 -126 0
-155 -3 -155 -14z"/>
</g>
</svg>
